<?xml version="1.0" encoding="UTF-8"?>
<svg width="34px" height="41px" viewBox="0 0 34 41" version="1.1" xmlns="http://www.w3.org/2000/svg" xmlns:xlink="http://www.w3.org/1999/xlink">
    <!-- Generator: sketchtool 62 (101010) - https://sketch.com -->
    <title>E15D555E-592D-4C36-91AC-D9568A6A7B26</title>
    <desc>Created with sketchtool.</desc>
    <g id="Ecommerce" stroke="none" stroke-width="1" fill="none" fill-rule="evenodd">
        <g id="Rebel-Smuggling-Home-Mobile" transform="translate(-191.000000, -1374.000000)" fill="#FFFFFF" fill-rule="nonzero">
            <g id="categories" transform="translate(10.000000, 469.000000)">
                <g id="category" transform="translate(0.000000, 856.000000)">
                    <g id="hot-drink" transform="translate(181.500000, 49.500000)">
                        <path d="M8.80597756,9.72054439 L2.60249268,9.72054439 C1.21098732,9.72054439 0.0789102439,8.58837073 0.0789102439,7.19686537 C0.0789102439,5.80536 1.21098732,4.67318634 2.60249268,4.67318634 L13.5612615,4.67318634 C13.882118,4.67318634 14.1531366,4.40207122 14.1531366,4.08131122 C14.1531366,3.76055122 13.882118,3.4894361 13.5612615,3.4894361 L6.75740195,3.4894361 C5.36589659,3.4894361 4.2339161,2.35735902 4.2339161,0.965853659 C4.2339161,0.432509268 4.66632878,-1.17239551e-14 5.19976976,-1.17239551e-14 C5.73321073,-1.17239551e-14 6.16562341,0.432509268 6.16562341,0.965853659 C6.16562341,1.28661366 6.43664195,1.55772878 6.75740195,1.55772878 L13.5612615,1.55772878 C14.9527668,1.55772878 16.0848439,2.68980585 16.0848439,4.08131122 C16.0848439,5.47281659 14.9527668,6.60489366 13.5612615,6.60489366 L2.60249268,6.60489366 C2.2816361,6.60489366 2.01061756,6.87600878 2.01061756,7.19686537 C2.01061756,7.51772195 2.28173268,7.78883707 2.60249268,7.78883707 L8.80607415,7.78883707 C9.38558634,7.78883707 9.95225268,7.99166634 10.4019541,8.35975317 C10.8146634,8.69760878 10.875319,9.30619317 10.5373668,9.71890244 C10.3464176,9.95205951 10.0690244,10.0728878 9.78950634,10.0728878 C9.57421756,10.0728878 9.35776976,10.0014146 9.17821756,9.85431512 C9.10355707,9.79336976 8.97847902,9.72054439 8.80597756,9.72054439 Z M33.4388195,20.6494683 L30.6629561,34.5287854 C30.5726488,34.980322 30.1762624,35.3052351 29.71584,35.3052351 L25.8738673,35.3052351 L25.1853102,38.7482137 C25.0950029,39.1997502 24.6986166,39.5246634 24.2381941,39.5246634 L10.9138566,39.5246634 C10.4534341,39.5246634 10.0570478,39.1997502 9.96674049,38.7482137 L5.52545561,16.5413063 C5.46866341,16.2575385 5.54216488,15.9633395 5.72558049,15.7395512 C5.9089961,15.5157629 6.18310537,15.3860488 6.47247512,15.3860488 L7.06502634,15.3860488 C7.07806537,14.5286605 7.30330244,13.8182751 7.74469756,13.2327746 C8.79390439,11.8410761 10.7740976,11.605601 12.6890956,11.3780459 C15.8396137,11.0034878 17.770838,10.5805405 18.0240849,7.87093463 C18.0704459,7.37448585 18.4871151,6.99500195 18.9857854,6.99500195 C23.8452849,6.99500195 27.353362,11.1747337 27.9304595,15.3860488 L28.6793824,15.3860488 C28.9687522,15.3860488 29.2428615,15.5157629 29.4262771,15.7395512 C29.6096927,15.9632429 29.6831941,16.2575385 29.626402,16.5413063 L29.035879,19.4942107 L32.4915102,19.4942107 C32.78088,19.4942107 33.0549893,19.6239249 33.2384049,19.8477132 C33.4221102,20.0715015 33.4956117,20.3657005 33.4388195,20.6494683 Z M8.99692683,15.3860488 L10.4524683,15.3860488 C10.4649278,15.3858556 10.4773873,15.3858556 10.4898468,15.3860488 L25.9747024,15.3860488 C25.4493746,12.3995327 23.0519327,9.41456195 19.7998068,8.98070049 C18.9679171,12.5770566 15.5006956,12.9890898 12.9171337,13.2962312 C11.3348722,13.4843795 9.84031024,13.662 9.28716585,14.3956624 C9.10442634,14.6380917 9.00803415,14.9653229 8.99692683,15.3860488 Z M26.9156371,20.2466107 L27.5014273,17.3177561 L11.6482917,17.3177561 L9.67833659,17.3177561 L8.12321561,17.3177561 C8.11191512,17.3177561 8.1008078,17.3177561 8.0896039,17.3177561 L7.65072,17.3177561 L11.70576,37.5930527 L23.4464839,37.5930527 L24.1298254,34.176442 C24.1329161,34.1579941 24.1365863,34.1397395 24.1407395,34.1217746 L26.9063649,20.2928751 C26.9090693,20.2773249 26.91216,20.2618712 26.9156371,20.2466107 Z M31.3135551,21.425918 L28.6497307,21.425918 L26.2602088,33.3735278 L28.9240332,33.3735278 L31.3135551,21.425918 Z" id="Shape"></path>
                    </g>
                </g>
            </g>
        </g>
    </g>
</svg>