<?xml version="1.0" encoding="UTF-8"?>
<svg width="27px" height="40px" viewBox="0 0 27 40" version="1.1" xmlns="http://www.w3.org/2000/svg" xmlns:xlink="http://www.w3.org/1999/xlink">
    <!-- Generator: sketchtool 62 (101010) - https://sketch.com -->
    <title>62D1A8BA-A5EE-4505-9D82-374B88DB921E</title>
    <desc>Created with sketchtool.</desc>
    <g id="Ecommerce" stroke="none" stroke-width="1" fill="none" fill-rule="evenodd">
        <g id="Rebel-Smuggling-Home-Mobile" transform="translate(-195.000000, -1802.000000)" fill="#FFFFFF" fill-rule="nonzero">
            <g id="categories" transform="translate(10.000000, 469.000000)">
                <g id="category" transform="translate(0.000000, 1284.000000)">
                    <g id="cutlery" transform="translate(185.625000, 49.500000)">
                        <path d="M15.9965649,15.2387561 L15.9965649,2.56047805 C15.9965649,2.02703707 16.4289776,1.59462439 16.9624185,1.59462439 C17.4958595,1.59462439 17.9282722,2.02703707 17.9282722,2.56047805 L17.9282722,15.2387561 C17.9282722,15.7721971 17.4958595,16.2046098 16.9624185,16.2046098 C16.4289776,16.2046098 15.9965649,15.7721971 15.9965649,15.2387561 L15.9965649,15.2387561 Z M25.5219102,23.144558 L25.5219102,36.0022917 C25.5219102,36.5357327 25.0894976,36.9681454 24.5560566,36.9681454 L17.9282722,36.9681454 L17.9282722,38.5590029 C17.9282722,39.0924439 17.4958595,39.5248566 16.9624185,39.5248566 C16.4289776,39.5248566 15.9965649,39.0924439 15.9965649,38.5590029 L15.9965649,36.9681454 L9.90676098,36.9681454 L9.90676098,38.5590029 C9.90676098,39.0924439 9.47434829,39.5248566 8.94090732,39.5248566 C8.40746634,39.5248566 7.97505366,39.0924439 7.97505366,38.5590029 L7.97505366,36.9681454 L1.06050732,36.9681454 C0.527066341,36.9681454 0.0946536585,36.5357327 0.0946536585,36.0022917 L0.0946536585,23.144558 C0.0946536585,22.6111171 0.527066341,22.1787044 1.06050732,22.1787044 L4.65135805,22.1787044 C5.18479902,22.1787044 5.61721171,22.6111171 5.61721171,23.144558 C5.61721171,23.677999 5.18479902,24.1104117 4.65135805,24.1104117 L2.02636098,24.1104117 L2.02636098,25.5714585 L7.97505366,25.5714585 L7.97505366,1.93170732 L6.97829268,1.93170732 L2.97695415,15.9568683 L6.09955902,19.0793766 C6.47682146,19.4565424 6.47682146,20.068121 6.09955902,20.4452868 C5.72239317,20.8224527 5.11081463,20.8225493 4.73364878,20.4452868 L1.20934537,16.92108 C0.961410732,16.6731454 0.86724,16.3102741 0.96353561,15.9730946 L5.32059805,0.701016585 C5.43891512,0.286279024 5.81801268,0 6.24936293,0 L8.94090732,0 C9.19705171,0 9.44276488,0.10170439 9.62386244,0.282898537 C9.80496,0.464092683 9.90676098,0.709709268 9.90676098,0.965853659 L9.90676098,25.5714585 L15.9965649,25.5714585 L15.9965649,19.7003239 L14.8375405,19.7003239 C13.5333483,19.7003239 12.4722615,18.6393337 12.4722615,17.3351415 L12.4722615,0.965853659 C12.4722615,0.432412683 12.9046741,0 13.4381151,0 C13.9715561,0 14.4039688,0.432412683 14.4039688,0.965853659 L14.4039688,17.3351415 C14.4039688,17.5701337 14.6025483,17.7686166 14.8375405,17.7686166 L19.0874898,17.7686166 C19.322482,17.7686166 19.5210615,17.5701337 19.5210615,17.3351415 L19.5210615,0.965853659 C19.5210615,0.432412683 19.9534741,0 20.4869151,0 C21.0203561,0 21.4527688,0.432412683 21.4527688,0.965853659 L21.4527688,17.3351415 C21.4527688,18.6393337 20.391682,19.7003239 19.0874898,19.7003239 L17.9283688,19.7003239 L17.9283688,25.5714585 L23.5902995,25.5714585 L23.5902995,24.1104117 L20.965399,24.1104117 C20.431958,24.1104117 19.9995454,23.677999 19.9995454,23.144558 C19.9995454,22.6111171 20.431958,22.1787044 20.965399,22.1787044 L24.5561532,22.1787044 C25.0894976,22.1787044 25.5219102,22.6111171 25.5219102,23.144558 L25.5219102,23.144558 Z M23.5902029,27.5031659 L2.02636098,27.5031659 L2.02636098,35.036438 L23.5902029,35.036438 L23.5902029,27.5031659 Z" id="Shape"></path>
                    </g>
                </g>
            </g>
        </g>
    </g>
</svg>