<?xml version="1.0" encoding="UTF-8"?>
<svg width="40px" height="41px" viewBox="0 0 40 41" version="1.1" xmlns="http://www.w3.org/2000/svg" xmlns:xlink="http://www.w3.org/1999/xlink">
    <!-- Generator: sketchtool 62 (101010) - https://sketch.com -->
    <title>F2B72A8A-2032-464D-856C-5AB77498BB49</title>
    <desc>Created with sketchtool.</desc>
    <g id="Ecommerce" stroke="none" stroke-width="1" fill="none" fill-rule="evenodd">
        <g id="Rebel-Smuggling-Home-Mobile" transform="translate(-188.000000, -1160.000000)" fill="#FFFFFF" fill-rule="nonzero">
            <g id="categories" transform="translate(10.000000, 469.000000)">
                <g id="category" transform="translate(0.000000, 642.000000)">
                    <g id="take-away" transform="translate(178.200000, 49.500000)">
                        <path d="M10.3912332,27.9636849 L2.15182537,27.9636849 C1.61848098,27.9636849 1.18597171,27.5312722 1.18597171,26.9978312 C1.18597171,26.4643902 1.61848098,26.0319776 2.15182537,26.0319776 L10.3912332,26.0319776 C10.9245776,26.0319776 11.3570868,26.4643902 11.3570868,26.9978312 C11.3570868,27.5312722 10.9245776,27.9636849 10.3912332,27.9636849 Z M39.6341912,15.1180244 L39.6341912,38.6135737 C39.6341912,39.1470146 39.201682,39.5794273 38.6683376,39.5794273 L5.55559024,39.5794273 C5.02224585,39.5794273 4.58973659,39.1470146 4.58973659,38.6135737 L4.58973659,31.5486439 L3.2029639,31.5486439 C2.66961951,31.5486439 2.23711024,31.1162312 2.23711024,30.5827902 C2.23711024,30.0493493 2.66961951,29.6169366 3.2029639,29.6169366 L14.1773795,29.6169366 C14.7107239,29.6169366 15.1432332,30.0493493 15.1432332,30.5827902 C15.1432332,31.1162312 14.7107239,31.5486439 14.1773795,31.5486439 L6.5214439,31.5486439 L6.5214439,37.64772 L37.7024839,37.64772 L37.7024839,16.083878 L6.5214439,16.083878 L6.5214439,22.4470185 L16.1555444,22.4470185 C16.6888888,22.4470185 17.121398,22.8794312 17.121398,23.4128722 C17.121398,23.9463132 16.6888888,24.3787259 16.1555444,24.3787259 L0.965853659,24.3787259 C0.432509268,24.3787259 0,23.9463132 0,23.4128722 C0,22.8794312 0.432509268,22.4470185 0.965853659,22.4470185 L4.58973659,22.4470185 L4.58973659,15.1180244 C4.58973659,14.5845834 5.02224585,14.1521707 5.55559024,14.1521707 L14.0974068,14.1521707 L14.0974068,5.71968878 C14.0974068,2.59602146 16.6386644,0.0546673171 19.7622351,0.0546673171 L24.4616927,0.0546673171 C27.58536,0.0546673171 30.1266176,2.59602146 30.1266176,5.71968878 L30.1266176,14.1522673 L38.6683376,14.1522673 C39.201682,14.1521707 39.6341912,14.5845834 39.6341912,15.1180244 Z M28.1950068,5.71968878 C28.1950068,3.66116488 26.5202166,1.98637463 24.4616927,1.98637463 L19.7622351,1.98637463 C17.7037112,1.98637463 16.0291141,3.66116488 16.0291141,5.71968878 L16.0291141,14.1522673 L28.1950068,14.1522673 L28.1950068,5.71968878 L28.1950068,5.71968878 Z" id="Shape"></path>
                    </g>
                </g>
            </g>
        </g>
    </g>
</svg>