<?xml version="1.0" encoding="UTF-8"?>
<svg width="38px" height="41px" viewBox="0 0 38 41" version="1.1" xmlns="http://www.w3.org/2000/svg" xmlns:xlink="http://www.w3.org/1999/xlink">
    <!-- Generator: sketchtool 62 (101010) - https://sketch.com -->
    <title>7989406D-FE8F-4D12-81DB-0CF8EC47C59E</title>
    <desc>Created with sketchtool.</desc>
    <g id="Ecommerce" stroke="none" stroke-width="1" fill="none" fill-rule="evenodd">
        <g id="Rebel-Smuggling-Home-Mobile" transform="translate(-189.000000, -1588.000000)" fill="#FFFFFF" fill-rule="nonzero">
            <g id="categories" transform="translate(10.000000, 469.000000)">
                <g id="category" transform="translate(0.000000, 1070.000000)">
                    <g id="cooker-1" transform="translate(179.025000, 49.500000)">
                        <path d="M9.32290244,28.7219766 C9.15909366,29.0733541 8.81061366,29.2798537 8.44696976,29.2798537 C8.31030146,29.2798537 8.17141171,29.2506849 8.03937951,29.18916 L3.75688098,27.192161 C3.27347122,26.9667307 3.06426732,26.3920478 3.28969756,25.908638 C3.51503122,25.4252283 4.08971415,25.2158312 4.57322049,25.4414546 L8.85571902,27.4384537 C9.33912878,27.6638839 9.54833268,28.2385668 9.32290244,28.7219766 Z M7.25414049,11.3299463 L7.44238537,11.3299463 L7.44238537,18.1897288 C7.44238537,18.7231698 7.87479805,19.1555824 8.40823902,19.1555824 C8.94168,19.1555824 9.37409268,18.7231698 9.37409268,18.1897288 L9.37409268,11.3299463 L19.0021083,11.3299463 C22.1257756,11.3299463 24.6671298,8.7885922 24.6671298,5.66502146 C24.6671298,5.13158049 24.2347171,4.6991678 23.7012761,4.6991678 C23.1678351,4.6991678 22.7354224,5.13158049 22.7354224,5.66502146 C22.7354224,7.72354537 21.0607288,9.39823902 19.0021083,9.39823902 L7.25414049,9.39823902 C5.19561659,9.39823902 3.52082634,7.72354537 3.52082634,5.66502146 C3.52082634,3.60640098 5.19561659,1.93170732 7.25414049,1.93170732 L12.6932488,1.93170732 C11.8275541,2.91678146 11.302999,4.20262244 11.302999,5.60764976 C11.302999,6.14109073 11.7354117,6.57350341 12.2688527,6.57350341 C12.8022937,6.57350341 13.2347063,6.14109073 13.2347063,5.60764976 C13.2347063,3.58070927 14.9094,1.93170732 16.9679239,1.93170732 L30.7498829,1.93170732 C32.8084068,1.93170732 34.4831005,3.60640098 34.4831005,5.66502146 C34.4831005,7.72354537 32.8084068,9.39823902 30.7498829,9.39823902 L26.0507151,9.39823902 C25.5172741,9.39823902 25.0848615,9.83065171 25.0848615,10.3640927 C25.0848615,10.8975337 25.5172741,11.3299463 26.0507151,11.3299463 L28.6300273,11.3299463 L28.6300273,18.1897288 C28.6300273,18.7231698 29.06244,19.1555824 29.595881,19.1555824 C30.129322,19.1555824 30.5617346,18.7231698 30.5617346,18.1897288 L30.5617346,11.3299463 L30.7499795,11.3299463 C33.8736468,11.3299463 36.4149044,8.7885922 36.4149044,5.66502146 C36.4149044,2.54135415 33.8735502,2.93098879e-14 30.7498829,2.93098879e-14 L7.25414049,2.93098879e-14 C4.13047317,2.93098879e-14 1.58911902,2.54135415 1.58911902,5.66502146 C1.58911902,8.78868878 4.13047317,11.3299463 7.25414049,11.3299463 Z M34.3619824,24.7993551 C33.87384,24.5841629 33.3036966,24.8056332 33.0886976,25.2938722 C32.9412117,25.6287337 32.7273717,25.8633395 32.4529727,25.9912185 L30.0894322,27.0934507 C29.8174478,27.2201707 29.5029659,27.234079 29.1550654,27.1347893 C28.6421005,26.9884624 28.1075971,27.2854624 27.9611737,27.7984273 C27.8147502,28.3113922 28.1118468,28.8458956 28.6247151,28.992319 C28.9512702,29.0855239 29.2763766,29.1319815 29.5943356,29.1319815 C30.0522468,29.1319815 30.4952839,29.0356859 30.9057717,28.8442537 L33.2692156,27.7420215 C33.9704254,27.4151766 34.5192234,26.8379824 34.8564029,26.0727366 C35.0715951,25.5844976 34.8502215,25.0143541 34.3619824,24.7993551 L34.3619824,24.7993551 Z M9.99513659,24.9948439 L5.71263805,22.9979415 C5.22903512,22.772318 4.65444878,22.9817151 4.42911512,23.4651249 C4.20368488,23.9485346 4.41288878,24.5232176 4.89629854,24.7486478 L9.17879707,26.7455502 C9.31082927,26.8071717 9.44971902,26.8362439 9.58638732,26.8362439 C9.9501278,26.8362439 10.2985112,26.6297444 10.46232,26.2783668 C10.6877502,25.7949571 10.4785463,25.2202741 9.99513659,24.9948439 Z M37.6158468,27.2843034 C37.1570663,28.5449356 36.2385395,29.54952 35.0295805,30.1132888 L31.5864088,31.7188273 C30.3776429,32.2825961 29.017721,32.3404507 27.7570888,31.8814771 C26.8063024,31.5354117 26.0011668,30.9278898 25.420882,30.1313502 L21.6206341,31.903402 L34.0714537,37.7092449 C34.5548634,37.9346751 34.7640673,38.509358 34.5386371,38.9927678 C34.3748283,39.3441454 34.0263483,39.5506449 33.6627044,39.5506449 C33.5259395,39.5506449 33.3871463,39.5214761 33.2551141,39.4599512 L19.3352312,32.9690283 L5.47059512,39.4342595 C4.98728195,39.6598829 4.41250244,39.4505824 4.1870722,38.9670761 C3.96164195,38.4836663 4.17084585,37.9089834 4.65425561,37.6835532 L17.0498283,31.903402 L13.3049239,30.1571385 C12.7247356,30.953678 11.9195034,31.5612966 10.9686205,31.907362 C9.70808488,32.3660459 8.34806634,32.3083844 7.1392039,31.7446156 L1.71081659,29.2133063 C0.301732683,28.5561395 -0.31013561,26.8750712 0.346934634,25.4658907 L2.19837951,21.4954595 C2.51585561,20.8146293 3.08116976,20.2976078 3.79029951,20.0394351 C4.49942927,19.781359 5.26506146,19.8140049 5.94569854,20.131481 L11.3739893,22.6627902 C12.5829483,23.2264624 13.5013785,24.2311434 13.960159,25.491679 C14.3062244,26.4424654 14.3583805,27.4498507 14.1211668,28.4063356 L19.3351346,30.837679 L24.6045424,28.3805473 C24.0408702,26.1033541 25.1470624,23.6648634 27.3514302,22.6369054 L30.7944088,21.0312702 C33.298481,19.8639395 36.2853834,20.9509112 37.4529073,23.4546937 C38.0168693,24.6637493 38.0746273,26.0237678 37.6158468,27.2843034 L37.6158468,27.2843034 Z M12.1450302,26.1524195 C11.8627112,25.3767424 11.299039,24.7591756 10.5577463,24.4135932 L5.12935902,21.8822839 C4.91609854,21.7829941 4.67521463,21.7729493 4.45104,21.8547571 C4.22676878,21.9363717 4.04856878,22.0987317 3.94908585,22.3118956 L2.09764098,26.2823268 C1.89065854,26.7262332 2.08334634,27.2558107 2.5271561,27.4626966 L7.95554341,29.9940059 C8.6968361,30.3395883 9.53220293,30.3744556 10.3079766,30.0922332 C11.0836537,29.8099141 11.7011239,29.246242 12.0468029,28.5049493 C12.392482,27.76356 12.4273493,26.9280966 12.1450302,26.1524195 L12.1450302,26.1524195 Z M35.7023941,24.2711298 C34.984958,22.7326215 33.1497395,22.0644439 31.611038,22.7820732 L28.1680595,24.3876117 C26.6724351,25.0850546 25.9995249,26.8391415 26.6223073,28.3498332 C26.6479024,28.3886605 26.7281649,28.5607756 26.7414937,28.6053015 C27.0964449,29.2842 27.6869678,29.800159 28.4178293,30.0661551 C29.1936029,30.3484741 30.0289698,30.3136068 30.7700693,29.9679278 L34.2133376,28.3622927 C34.9546302,28.0166137 35.518399,27.3991434 35.800718,26.6234663 C36.0829405,25.8479824 36.0480732,25.012519 35.7023941,24.2711298 L35.7023941,24.2711298 Z" id="Shape"></path>
                    </g>
                </g>
            </g>
        </g>
    </g>
</svg>