<?xml version="1.0" encoding="UTF-8"?>
<svg width="38px" height="41px" viewBox="0 0 38 41" version="1.1" xmlns="http://www.w3.org/2000/svg" xmlns:xlink="http://www.w3.org/1999/xlink">
    <!-- Generator: sketchtool 62 (101010) - https://sketch.com -->
    <title>FFA37CCC-AFB1-491F-9A41-C3FE964F33D1</title>
    <desc>Created with sketchtool.</desc>
    <g id="Ecommerce" stroke="none" stroke-width="1" fill="none" fill-rule="evenodd">
        <g id="Rebel-Smuggling-Home-Mobile" transform="translate(-189.000000, -946.000000)" fill="#FFFFFF" fill-rule="nonzero">
            <g id="categories" transform="translate(10.000000, 469.000000)">
                <g id="category" transform="translate(0.000000, 428.000000)">
                    <g id="cooking" transform="translate(179.025000, 49.500000)">
                        <path d="M32.9458511,1.64489343 C32.5696029,1.26864526 32.5696029,0.658554745 32.9458511,0.282306569 C33.3221956,-0.0940379562 33.9320934,-0.0940379562 34.3085343,0.282306569 L34.4381255,0.41180146 C34.8143737,0.788049635 34.8143737,1.39814015 34.4381255,1.77438832 C34.2499533,1.96256058 34.0033927,2.05659854 33.7568321,2.05659854 C33.5102715,2.05659854 33.2637109,1.96256058 33.0755387,1.77438832 L32.9458511,1.64489343 Z M32.8162599,12.3739883 C34.3527591,12.3739883 35.6029051,13.624038 35.6029051,15.1604409 C35.6029051,16.6968438 34.3527591,17.9468934 32.8162599,17.9468934 C31.2797606,17.9468934 30.0297109,16.6968438 30.0297109,15.1604409 C30.0297109,13.624038 31.2797606,12.3739883 32.8162599,12.3739883 L32.8162599,12.3739883 Z M32.8162599,14.3009956 C32.3423124,14.3009956 31.9567182,14.6865898 31.9567182,15.1604409 C31.9567182,15.6343883 32.3423124,16.0198861 32.8162599,16.0198861 C33.2903036,16.0198861 33.6758978,15.6343883 33.6758978,15.1604409 C33.6758978,14.6865898 33.2903036,14.3009956 32.8162599,14.3009956 Z M37.1820876,26.3365051 L37.1820876,27.491746 C37.1820876,28.9969314 35.9575708,30.2214482 34.4524818,30.2214482 L33.6496905,30.2214482 L33.6496905,35.4161781 C33.6496905,37.7001635 31.7915737,39.5582803 29.5075883,39.5582803 L7.73837956,39.5582803 C5.45449051,39.5582803 3.59637372,37.7001635 3.59637372,35.4161781 L3.59637372,30.2214482 L2.79358248,30.2214482 C1.28839708,30.2214482 0.063880292,28.9969314 0.063880292,27.491746 L0.063880292,26.3365051 C0.063880292,24.8313197 1.28839708,23.6068029 2.79358248,23.6068029 L3.59637372,23.6068029 L3.59637372,20.7595533 C3.59637372,20.2274102 4.02783066,19.7960496 4.55987737,19.7960496 L32.6861869,19.7960496 C33.2182336,19.7960496 33.6496905,20.2274102 33.6496905,20.7595533 L33.6496905,23.6068029 L34.4524818,23.6068029 C35.9575708,23.6068029 37.1820876,24.8313197 37.1820876,26.3365051 Z M3.59627737,25.5338102 L2.79348613,25.5338102 C2.35085255,25.5338102 1.99079124,25.8938715 1.99079124,26.3365051 L1.99079124,27.491746 C1.99079124,27.9343796 2.35085255,28.2944409 2.79348613,28.2944409 L3.59627737,28.2944409 L3.59627737,25.5338102 L3.59627737,25.5338102 Z M31.7225869,21.7230569 L5.52328467,21.7230569 L5.52328467,35.4161781 C5.52328467,36.6376117 6.51694599,37.631273 7.73828321,37.631273 L29.507492,37.631273 C30.7289255,37.631273 31.7225869,36.6376117 31.7225869,35.4161781 L31.7225869,21.7230569 Z M35.2550803,26.3365051 C35.2550803,25.8938715 34.895019,25.5338102 34.4524818,25.5338102 L33.6496905,25.5338102 L33.6496905,28.2944409 L34.4524818,28.2944409 C34.895019,28.2944409 35.2550803,27.9343796 35.2550803,27.491746 L35.2550803,26.3365051 L35.2550803,26.3365051 Z M30.2773314,7.72228905 C30.5237956,7.72228905 30.7702599,7.62825109 30.9583358,7.44036788 L31.0880234,7.31077664 C31.4644642,6.93462482 31.4646569,6.32463066 31.0885051,5.94818978 C30.712546,5.57165255 30.1023591,5.5715562 29.7259182,5.94770803 L29.5962307,6.07729927 C29.2197898,6.45345109 29.2195971,7.06344526 29.5957489,7.43988613 C29.7839212,7.62815474 30.0306745,7.72228905 30.2773314,7.72228905 Z M22.291235,17.8910102 C22.291235,18.4231533 22.722692,18.8545139 23.2547387,18.8545139 C23.7867854,18.8545139 24.2182423,18.4231533 24.2182423,17.8910102 C24.2182423,17.1299387 24.8374861,16.5106949 25.5984613,16.5106949 C26.3595328,16.5106949 26.9787766,17.1299387 26.9787766,17.8910102 C26.9787766,18.4231533 27.4102336,18.8545139 27.9422803,18.8545139 C28.474327,18.8545139 28.9057839,18.4231533 28.9057839,17.8910102 C28.9057839,16.0673869 27.422181,14.5836876 25.5984613,14.5836876 C23.774838,14.5836876 22.291235,16.0672905 22.291235,17.8910102 L22.291235,17.8910102 Z M4.29529927,16.448838 C4.17283796,15.9309547 4.49339562,15.4119153 5.01127883,15.289454 L15.4783971,12.8146949 L15.2937898,12.0333898 C14.9475066,10.5685752 15.8575358,9.0951854 17.322254,8.74899854 L18.4464701,8.48326423 C19.9107066,8.13698102 21.3845781,9.04681752 21.7309577,10.5115358 L21.9157577,11.2928409 L32.3827796,8.8179854 C32.9004701,8.69571679 33.4197022,9.01608175 33.5420672,9.53396496 C33.6645285,10.0518482 33.3439708,10.5708876 32.8260876,10.6933489 L5.45468321,17.1648175 C5.38020438,17.1824496 5.30553285,17.1909285 5.23211387,17.1909285 C4.79564672,17.1908321 4.40012847,16.892146 4.29529927,16.448838 Z M17.1690569,11.5900818 L17.3537606,12.3712905 L20.0403942,11.7360526 L19.8556905,10.9548438 C19.7684934,10.5860146 19.438108,10.3367562 19.0745781,10.3367562 C19.0135883,10.3367562 18.9518277,10.3437898 18.8898745,10.3583387 L17.7656584,10.6241693 C17.3347796,10.726108 17.0672146,11.1592993 17.1690569,11.5900818 L17.1690569,11.5900818 Z" id="Shape"></path>
                    </g>
                </g>
            </g>
        </g>
    </g>
</svg>