<?xml version="1.0" encoding="UTF-8"?>
<svg width="20px" height="25px" viewBox="0 0 20 25" version="1.1" xmlns="http://www.w3.org/2000/svg" xmlns:xlink="http://www.w3.org/1999/xlink">
    <!-- Generator: sketchtool 62 (101010) - https://sketch.com -->
    <title>1FB0E4AD-7576-42DC-8C72-6800915F1E29</title>
    <desc>Created with sketchtool.</desc>
    <g id="Ecommerce" stroke="none" stroke-width="1" fill="none" fill-rule="evenodd">
        <g id="Rebel-Smuggling-Checkout-3-Mobile" transform="translate(-351.000000, -8.000000)" fill="#FFFFFF" fill-rule="nonzero">
            <g id="header">
                <g id="top-nav">
                    <g id="shopping-bag" transform="translate(351.000000, 8.500000)">
                        <path d="M19.2539877,20.7460123 L17.8797546,5.27116564 C17.8503067,4.92760736 17.5607362,4.66748466 17.2220859,4.66748466 L14.395092,4.66748466 C14.3558282,2.08588957 12.2453988,0 9.65398773,0 C7.06257669,0 4.95214724,2.08588957 4.91288344,4.66748466 L2.08588957,4.66748466 C1.74233129,4.66748466 1.45766871,4.92760736 1.42822086,5.27116564 L0.0539877301,20.7460123 C0.0539877301,20.7656442 0.0490797546,20.7852761 0.0490797546,20.804908 C0.0490797546,22.5668712 1.66380368,24 3.65153374,24 L15.6564417,24 C17.6441718,24 19.2588957,22.5668712 19.2588957,20.804908 C19.2588957,20.7852761 19.2588957,20.7656442 19.2539877,20.7460123 Z M9.65398773,1.32515337 C11.5141104,1.32515337 13.0306748,2.81717791 13.0699387,4.66748466 L6.23803681,4.66748466 C6.27730061,2.81717791 7.79386503,1.32515337 9.65398773,1.32515337 Z M15.6564417,22.6748466 L3.65153374,22.6748466 C2.40490798,22.6748466 1.39386503,21.8503067 1.37423313,20.8343558 L2.68957055,5.99754601 L4.90797546,5.99754601 L4.90797546,8.00981595 C4.90797546,8.37791411 5.20245399,8.67239264 5.57055215,8.67239264 C5.93865031,8.67239264 6.23312883,8.37791411 6.23312883,8.00981595 L6.23312883,5.99754601 L13.0699387,5.99754601 L13.0699387,8.00981595 C13.0699387,8.37791411 13.3644172,8.67239264 13.7325153,8.67239264 C14.1006135,8.67239264 14.395092,8.37791411 14.395092,8.00981595 L14.395092,5.99754601 L16.6134969,5.99754601 L17.9337423,20.8343558 C17.9141104,21.8503067 16.8981595,22.6748466 15.6564417,22.6748466 Z" id="Shape"></path>
                    </g>
                </g>
            </g>
        </g>
    </g>
</svg>