<?xml version="1.0" encoding="UTF-8"?>
<svg width="43px" height="41px" viewBox="0 0 43 41" version="1.1" xmlns="http://www.w3.org/2000/svg" xmlns:xlink="http://www.w3.org/1999/xlink">
    <!-- Generator: sketchtool 62 (101010) - https://sketch.com -->
    <title>58BC67C6-3E4B-4C76-BCDD-3CA124B1146D</title>
    <desc>Created with sketchtool.</desc>
    <g id="Ecommerce" stroke="none" stroke-width="1" fill="none" fill-rule="evenodd">
        <g id="Rebel-Smuggling-Home-Mobile" transform="translate(-187.000000, -518.000000)" fill="#FFFFFF" fill-rule="nonzero">
            <g id="categories" transform="translate(10.000000, 469.000000)">
                <g id="category">
                    <g id="meat" transform="translate(177.375000, 49.500000)">
                        <path d="M20.5976134,20.0196371 C20.9961649,20.4181887 20.996267,21.0644443 20.5976134,21.4630979 L17.0615784,24.9992351 C16.8622515,25.1984598 16.6010753,25.2981742 16.339899,25.2981742 C16.0787227,25.2981742 15.8175464,25.1984598 15.6182196,24.9992351 C15.219668,24.6006835 15.219566,23.9544278 15.6182196,23.5557742 L19.1542546,20.0196371 C19.5528062,19.6211876 20.1990619,19.6211876 20.5976134,20.0196371 Z M8.97838144,8.55809072 L20.5584216,8.55809072 C20.8974711,8.55809072 21.1838567,8.84457835 21.1838567,9.18352577 C21.1838567,9.52257526 20.8973691,9.80906289 20.5584216,9.80906289 L14.0030907,9.80906289 C12.5327876,9.80906289 11.3365206,11.0053299 11.3365206,12.4757351 L11.3365206,14.1218907 C11.3365206,14.6854763 11.7934515,15.1425093 12.3571392,15.1425093 C12.9208268,15.1425093 13.3777577,14.6854763 13.3777577,14.1218907 L13.3777577,12.4757351 C13.3777577,12.1367876 13.6641433,11.8503 14.0030907,11.8503 L20.5584216,11.8503 C22.0288268,11.8503 23.2250938,10.6539309 23.2250938,9.18352577 C23.2250938,7.71312062 22.0288268,6.51685361 20.5584216,6.51685361 L8.97838144,6.51685361 C8.63933196,6.51685361 8.35284433,6.23036598 8.35284433,5.89141856 C8.35284433,5.55236907 8.63933196,5.26588144 8.97838144,5.26588144 L16.1679247,5.26588144 C17.6383299,5.26588144 18.8345969,4.06961443 18.8345969,2.59920928 C18.8345969,2.03562371 18.377666,1.57859072 17.8139784,1.57859072 C17.2502907,1.57859072 16.7933598,2.03562371 16.7933598,2.59920928 C16.7933598,2.9381567 16.5069742,3.22464433 16.1679247,3.22464433 L8.97838144,3.22464433 C7.50787423,3.22464433 6.31160722,4.4210134 6.31160722,5.89141856 C6.31160722,7.36182371 7.50797629,8.55809072 8.97838144,8.55809072 Z M41.9751835,32.8076814 C41.9751835,33.371267 41.5182526,33.8283 40.9545649,33.8283 L38.1261247,33.8283 C38.119899,33.8283 38.1136732,33.8283 38.1075495,33.8283 L33.1274412,33.8283 L29.9376,39.1020402 C29.7526639,39.4076134 29.4214732,39.5943866 29.0642567,39.5943866 L13.1203577,39.5943866 C12.7631412,39.5943866 12.4319505,39.4076134 12.2470144,39.1020402 L9.05707113,33.8283 L5.33171134,33.8283 C5.31864742,33.8285041 5.30548144,33.8285041 5.29241753,33.8283 L1.22994742,33.8283 C0.666259794,33.8283 0.209328866,33.371267 0.209328866,32.8076814 C0.209328866,32.2440959 0.666259794,31.7870629 1.22994742,31.7870629 L3.94479278,31.7870629 C3.92978969,31.6456052 3.92213505,31.5033309 3.92213505,31.3605464 C3.92213505,30.0265979 4.56410412,28.8142052 5.61493299,28.0678268 C5.56267732,27.8071608 5.53644742,27.5406773 5.53644742,27.2697031 C5.53644742,26.2155062 5.94183711,25.2544918 6.60503505,24.5339351 L5.80976907,22.6871258 C5.80762577,22.6871258 5.80548247,22.6871258 5.80323711,22.6871258 C3.71147938,22.6871258 1.63870515,21.2182515 0.656053608,18.9360464 C-0.459890722,16.3447979 0.151970103,13.4526711 2.11094536,12.0593227 C2.22872474,11.9755299 2.36293608,11.9176608 2.50480206,11.8896959 C4.86314536,11.4239876 7.38488969,12.9666526 8.50083402,15.5581052 C9.48460825,17.8425557 9.1256567,20.3607278 7.6845433,21.8797144 L8.34712887,23.418399 C8.73588247,23.2936794 9.14994742,23.2263186 9.57952577,23.2263186 C11.5671804,23.2263186 13.2243588,24.6678402 13.5604485,26.5603732 C13.5720835,26.5602711 13.5837186,26.5602711 13.5952515,26.5602711 C15.8245887,26.5602711 17.6383299,28.3740124 17.6383299,30.6034515 C17.6383299,31.0072082 17.5769907,31.406066 17.4600278,31.7868588 L29.8969794,31.7868588 C30.3103299,30.9257629 30.594266,30.0103701 30.742868,29.0580309 L33.514868,11.2912052 L30.099368,10.7582381 L27.5720103,17.732533 C27.4056495,18.1915052 26.9370835,18.4676845 26.4551474,18.3932814 L22.5069866,17.7774402 C18.743966,17.1903804 14.9268526,18.864399 12.7835536,22.0421969 C12.4683866,22.5095381 11.8340722,22.6328289 11.3667309,22.3176619 C10.8993897,22.0023928 10.776099,21.3680784 11.091266,20.9007371 C13.675166,17.0696412 18.2798907,15.0517763 22.8215412,15.7604938 L25.9391227,16.2469206 L29.693366,5.88692784 C28.8623784,5.14269278 28.4314732,4.0052134 28.6087546,2.86804021 C28.7467423,1.98377629 29.2208196,1.20616701 29.9437237,0.678405155 C30.6666278,0.150643299 31.5517082,-0.0639927835 32.4359722,0.0740969072 C32.9872082,0.16003299 33.5009876,0.379465979 33.9375062,0.709431959 C34.4538371,0.528374227 35.0103804,0.475710309 35.5615144,0.561748454 C37.3867887,0.846705155 38.6400062,2.56338557 38.3553557,4.38865979 C38.1690928,5.58319175 37.3454536,6.57186495 36.250534,6.99756495 L32.7595082,29.3725856 C32.6299918,30.2031649 32.4151515,31.0104742 32.1176412,31.7868588 L37.5685608,31.7868588 C37.7737052,31.4023918 37.8804619,30.9748546 37.8804619,30.5288443 C37.8804619,29.0492536 36.6766423,27.845434 35.1969495,27.845434 C34.6332619,27.845434 34.1763309,27.388401 34.1763309,26.8248155 C34.1763309,26.2612299 34.6332619,25.8041969 35.1969495,25.8041969 C37.8021804,25.8041969 39.921699,27.9237155 39.921699,30.5288443 C39.921699,30.9603619 39.8648505,31.3820814 39.7537052,31.7868588 L40.9544629,31.7868588 C41.5182526,31.7870629 41.9751835,32.2439938 41.9751835,32.8076814 Z M33.8295247,9.27456495 L34.3363639,6.02593608 C34.4063784,5.57757835 34.763901,5.22924124 35.2139938,5.17106598 C35.7869691,5.09696907 36.2495134,4.64595773 36.3387155,4.07420722 C36.4499629,3.36099897 35.960168,2.69004433 35.2469598,2.57879691 C34.9204639,2.52786804 34.5894773,2.60135258 34.315033,2.78567629 C33.872799,3.08308454 33.2761454,2.98969794 32.9454649,2.57165258 C32.7405247,2.31261959 32.4480155,2.14197216 32.1217237,2.09114536 C31.7758361,2.03746082 31.4300505,2.12094742 31.1475433,2.32721443 C30.8650361,2.53348144 30.6797938,2.83721753 30.6259052,3.18269691 C30.5371113,3.75250825 30.8385,4.32231959 31.3590155,4.56839072 C31.835032,4.79343711 32.0617113,5.34375464 31.8822866,5.83875464 L30.8080856,8.80293711 L33.8295247,9.27456495 L33.8295247,9.27456495 Z M6.72863196,19.6596649 C7.12595876,18.725901 7.11411959,17.4987093 6.62616186,16.3656186 C5.93795876,14.7673299 4.4635732,13.7276258 3.11992887,13.8601021 C2.10186186,14.7451825 1.8427268,16.5306526 2.53103196,18.1289412 C3.01888763,19.262134 3.90253918,20.1139423 4.85385773,20.4669742 L3.60584536,17.5688258 C3.38284021,17.051168 3.62186907,16.4507381 4.1395268,16.227733 C4.65749072,16.0048299 5.25761443,16.2438588 5.48061959,16.7614144 L6.72863196,19.6596649 L6.72863196,19.6596649 Z M15.2108907,31.7870629 C15.4620649,31.4465845 15.5972969,31.0372144 15.5972969,30.6036557 C15.5972969,29.4998567 14.6992546,28.6017124 13.5954557,28.6017124 C13.3597948,28.6017124 13.1295433,28.6421289 12.9110289,28.7216351 C12.5704485,28.8454361 12.1895536,28.7796062 11.9105165,28.5481299 C11.6314794,28.3167557 11.4960433,27.9547423 11.554933,27.5970155 C11.5726918,27.489034 11.5816732,27.3789093 11.5816732,27.2698052 C11.5816732,26.1660062 10.6836309,25.2678619 9.5797299,25.2678619 C9.17576907,25.2678619 8.79926289,25.3881928 8.4843,25.594868 C8.4468433,25.6257928 8.40693711,25.654166 8.36447938,25.6798856 C7.88652371,26.0460835 7.5777866,26.6225289 7.5777866,27.2698052 C7.5777866,27.5672134 7.64126907,27.8529866 7.76639691,28.1191639 C7.8860134,28.3735021 7.89540309,28.6659093 7.79232062,28.9274938 C7.68923814,29.1890784 7.48297113,29.3965701 7.22199897,29.5009794 C6.45745361,29.8069608 5.96337216,30.5369072 5.96337216,31.3606485 C5.96337216,31.5062907 5.97837526,31.648667 6.00827938,31.7871649 L15.2108907,31.7871649 L15.2108907,31.7870629 Z M30.7417454,33.8281979 L30.5356825,33.8281979 C30.5228227,33.8284021 30.5099629,33.8284021 30.4971031,33.8281979 L11.442767,33.8281979 L13.6957825,37.5530474 L28.4887299,37.5530474 L30.7417454,33.8281979 Z M24.0066835,30.0227196 C24.2060103,30.2219443 24.4671866,30.3216588 24.7283629,30.3216588 C24.9895392,30.3216588 25.2508175,30.2219443 25.4500423,30.0227196 L28.9860773,26.4865825 C29.3846289,26.0880309 29.3846289,25.4417753 28.9860773,25.0431216 C28.5875258,24.6446722 27.9412701,24.6446722 27.5427186,25.0431216 L24.0066835,28.5792588 C23.608132,28.9778103 23.608132,29.624066 24.0066835,30.0227196 L24.0066835,30.0227196 Z M24.8878856,21.0674041 L19.2267186,26.7286732 C18.828167,27.1272247 18.828167,27.7734804 19.2267186,28.172134 C19.4260454,28.3713588 19.6872216,28.4710732 19.9483979,28.4710732 C20.2095742,28.4710732 20.4708526,28.3713588 20.6700773,28.172134 L26.3312443,22.5108649 C26.7297959,22.1123134 26.7297959,21.4660577 26.3312443,21.0674041 C25.9326928,20.6688526 25.2864371,20.6688526 24.8878856,21.0674041 Z" id="Shape"></path>
                    </g>
                </g>
            </g>
        </g>
    </g>
</svg>