<?xml version="1.0" encoding="UTF-8"?>
<svg width="41px" height="41px" viewBox="0 0 41 41" version="1.1" xmlns="http://www.w3.org/2000/svg" xmlns:xlink="http://www.w3.org/1999/xlink">
    <!-- Generator: sketchtool 62 (101010) - https://sketch.com -->
    <title>3D8EC42C-1665-4E3B-970D-5ED0F00170E0</title>
    <desc>Created with sketchtool.</desc>
    <g id="Ecommerce" stroke="none" stroke-width="1" fill="none" fill-rule="evenodd">
        <g id="Rebel-Smuggling-Home-Mobile" transform="translate(-188.000000, -732.000000)" fill="#FFFFFF" fill-rule="nonzero">
            <g id="categories" transform="translate(10.000000, 469.000000)">
                <g id="category" transform="translate(0.000000, 214.000000)">
                    <g id="spicy-food" transform="translate(178.200000, 49.500000)">
                        <path d="M1.06939556,20.2651289 C-0.0197511111,17.5490578 1.32821333,14.6008622 2.75547556,11.4796 C4.10422222,8.52993778 5.63278222,5.18681778 5.50694222,1.41328 C5.49315556,1.00202667 5.73838222,0.626168889 6.12030222,0.473048889 L6.95923556,0.136791111 C7.44900444,-0.0595466667 8.00633778,0.168177778 8.21841778,0.651591111 C11.4273867,7.96615111 14.0954489,11.5680889 16.8694044,12.3304622 C18.7088,12.8361689 20.8261778,12.1697156 23.5328622,10.2339111 C23.7769156,10.0593778 24.0877511,10.00648 24.3759022,10.0906667 C24.6639556,10.1748533 24.8974489,10.38664 25.0092089,10.6653067 C25.5732889,12.0719378 25.8217422,13.5614844 25.7477244,15.0927822 C25.7216178,15.6322222 25.2642133,16.0481689 24.7237956,16.02216 C24.1844533,15.9960533 23.7684089,15.5376711 23.7944178,14.9982311 C23.8345067,14.1686844 23.7588267,13.3546844 23.5688444,12.5662044 C20.8344889,14.2874844 18.5179378,14.8116711 16.3510844,14.2161067 C14.5157956,13.7116711 12.8172978,12.3831644 11.1584978,10.1547111 C9.93686222,8.51360889 8.71688889,6.38058667 7.38036444,3.53808889 C7.03051556,6.83241778 5.71726222,9.70483556 4.53385778,12.2929156 C3.23194667,15.1404 2.10740444,17.5995111 2.88434667,19.5372711 C3.34321778,20.6814667 4.03519111,21.6979644 4.94071111,22.5584089 C5.33221333,22.9303556 5.34805333,23.5492889 4.97600889,23.9406933 C4.78387556,24.1429956 4.52574222,24.2449778 4.26702222,24.2449778 C4.02512,24.2449778 3.78292444,24.1558044 3.59372444,23.9759911 C2.48296889,22.9205778 1.63357333,21.6720533 1.06939556,20.2651289 L1.06939556,20.2651289 Z M40.01272,33.0533867 C40.01272,33.5933156 39.5748711,34.0311644 39.0349422,34.0311644 L34.7877689,34.0311644 C34.7747644,34.03136 34.7613689,34.03136 34.7484622,34.0311644 L31.5361689,34.0311644 L28.4801244,39.0835378 C28.3029511,39.3762844 27.9856622,39.5552178 27.64344,39.5552178 L12.3689867,39.5552178 C12.0267644,39.5552178 11.7094756,39.3762844 11.5323022,39.0835378 L8.47635556,34.0311644 L5.26425778,34.0311644 C5.25125333,34.03136 5.23785778,34.03136 5.22495111,34.0311644 L0.977777778,34.0311644 C0.437848889,34.0311644 -2.34479103e-14,33.5933156 -2.34479103e-14,33.0533867 C-2.34479103e-14,32.5134578 0.437848889,32.0756089 0.977777778,32.0756089 L4.29684444,32.0756089 C4.80352889,23.8505422 11.6559911,17.3139022 20.0063111,17.3139022 C21.2906222,17.3139022 22.5691644,17.4693689 23.8064444,17.7760978 C24.3306311,17.9059467 24.6502667,18.4361956 24.52032,18.9602844 C24.3904711,19.4843733 23.8598311,19.8039111 23.3361333,19.67416 C22.25256,19.4056622 21.1322222,19.2694578 20.0063111,19.2694578 C12.7346756,19.2694578 6.76006222,24.9298133 6.25660444,32.0756089 L14.52352,32.0756089 C13.9355822,31.5868178 13.4929422,31.07544 13.1695911,30.6282044 C12.2180178,29.3118222 11.5633956,27.4292089 12.3747556,26.4063556 C12.69752,25.9995022 13.3304356,25.6851467 14.1397422,26.0240444 C16.5444889,27.0303733 18.8141067,27.0632267 20.88592,26.1209422 C23.37544,24.9888711 25.3547556,22.53504 26.4591556,19.2116711 C27.0422044,17.4571467 28.7815733,16.6536089 30.5057867,16.6254489 C30.4152444,15.8025511 30.1331556,15.0051733 29.6703733,14.30264 C29.3734222,13.8516889 29.4980889,13.2452711 29.9491378,12.9481244 C30.4001867,12.6512711 31.0066044,12.77584 31.3036533,13.2268889 C32.0387467,14.3429244 32.4415911,15.6325156 32.4886222,16.9476267 C34.4644178,17.6530933 35.5849511,19.3825867 35.3180178,21.4189067 C35.0017067,23.8309867 33.7556267,26.35688 31.8097511,28.5311644 C30.5282756,29.96312 29.0146756,31.1781067 27.4142489,32.0755111 L33.7562133,32.0755111 C33.6897244,31.1285333 33.5269244,30.1939733 33.2695733,29.2861067 C33.12232,28.7666133 33.42416,28.226 33.9437511,28.0787467 C34.46344,27.9316889 35.0038578,28.2333333 35.1511111,28.7529244 C35.4575467,29.8341511 35.6466489,30.94784 35.7159733,32.0755111 L39.0349422,32.0755111 C39.5748711,32.0756089 40.01272,32.5134578 40.01272,33.0533867 L40.01272,33.0533867 Z M15.5996622,30.4185689 C16.8160178,31.5077156 19.6075733,33.0593511 24.63472,31.2148711 C28.4695644,29.8077511 32.7888978,25.6639289 33.3789867,21.1647822 C33.5354311,19.9718933 32.8884356,19.3286133 32.2723378,18.9910844 C32.2614844,19.0344978 32.2500444,19.0779111 32.2383111,19.1211289 C32.0969244,19.6422844 31.5597333,19.9500889 31.0386756,19.8088978 C30.51752,19.6676089 30.2096178,19.1305156 30.3509067,18.6092622 C30.3531556,18.6009511 30.3554044,18.5925422 30.3575556,18.5843289 C29.4323822,18.6402578 28.5757511,19.0432978 28.3147822,19.8284533 C27.0369244,23.6742489 24.6860533,26.5411911 21.6954222,27.90128 C19.3392711,28.9727289 16.7073867,29.0328622 14.0448978,28.0839289 C14.2189422,28.6820356 14.6833867,29.5982133 15.5996622,30.4185689 Z M29.2507111,34.0311644 L10.7618133,34.0311644 L12.9202578,37.5996622 L27.0920711,37.5996622 L29.2507111,34.0311644 Z M17.4848178,23.7822933 C16.9448889,23.7822933 16.50704,24.2201422 16.50704,24.7600711 C16.50704,25.3 16.9448889,25.7378489 17.4848178,25.7378489 L17.6705956,25.7378489 C18.2105244,25.7378489 18.6483733,25.3 18.6483733,24.7600711 C18.6483733,24.2201422 18.2105244,23.7822933 17.6705956,23.7822933 L17.4848178,23.7822933 Z M9.52981333,28.7088267 L9.34403556,28.7088267 C8.80410667,28.7088267 8.36625778,29.1466756 8.36625778,29.6866044 C8.36625778,30.2265333 8.80410667,30.6643822 9.34403556,30.6643822 L9.52981333,30.6643822 C10.0697422,30.6643822 10.5075911,30.2265333 10.5075911,29.6866044 C10.5075911,29.1466756 10.0697422,28.7088267 9.52981333,28.7088267 Z M13.7828533,22.0850667 C13.2429244,22.0850667 12.8050756,22.5229156 12.8050756,23.0628444 C12.8050756,23.6027733 13.2429244,24.0406222 13.7828533,24.0406222 L13.9686311,24.0406222 C14.50856,24.0406222 14.9464089,23.6027733 14.9464089,23.0628444 C14.9464089,22.5229156 14.50856,22.0850667 13.9686311,22.0850667 L13.7828533,22.0850667 Z M20.61048,20.6213333 C20.0705511,20.6213333 19.6327022,21.0591822 19.6327022,21.5991111 C19.6327022,22.13904 20.0705511,22.5768889 20.61048,22.5768889 L20.7962578,22.5768889 C21.3361867,22.5768889 21.7740356,22.13904 21.7740356,21.5991111 C21.7740356,21.0591822 21.3361867,20.6213333 20.7962578,20.6213333 L20.61048,20.6213333 Z" id="Shape"></path>
                    </g>
                </g>
            </g>
        </g>
    </g>
</svg>