<?xml version="1.0" encoding="UTF-8"?>
<svg width="39px" height="41px" viewBox="0 0 39 41" version="1.1" xmlns="http://www.w3.org/2000/svg" xmlns:xlink="http://www.w3.org/1999/xlink">
    <!-- Generator: sketchtool 62 (101010) - https://sketch.com -->
    <title>DECE1CDB-86EA-4FB2-8686-45CA1895A313</title>
    <desc>Created with sketchtool.</desc>
    <g id="Ecommerce" stroke="none" stroke-width="1" fill="none" fill-rule="evenodd">
        <g id="Rebel-Smuggling-Home-Mobile" transform="translate(-189.000000, -2016.000000)" fill="#FFFFFF" fill-rule="nonzero" stroke="#FFFFFF" stroke-width="0.5">
            <g id="categories" transform="translate(10.000000, 469.000000)">
                <g id="category" transform="translate(0.000000, 1498.000000)">
                    <g id="cleaning" transform="translate(179.850000, 49.500000)">
                        <path d="M33,27.72 L31.96644,27.72 C31.241595,27.72066 30.526815,27.8893725 29.8782,28.21302 C28.9344825,28.682115 27.8255175,28.682115 26.8818,28.21302 C26.5053525,28.0283025 26.105805,27.895065 25.6938,27.81702 L26.98014,17.82 L28.38,17.82 C28.744485,17.82 29.04,17.524485 29.04,17.16 L29.04,14.52 C29.04,14.155515 28.744485,13.86 28.38,13.86 L25.74,13.86 L25.74,11.88 C25.74,11.704935 25.67037,11.53713 25.54662,11.41338 L22.44,8.30676 L22.44,6.2568 L23.44056,5.45688 L25.1493,8.87502 L26.3307,8.28498 L24.49458,4.6134 L25.311,3.96 L27.72,3.96 C28.084485,3.96 28.38,3.664485 28.38,3.3 L28.38,0.66 C28.38,0.295515 28.084485,0 27.72,0 L21.12,0 C17.84112,0.00396 15.18396,2.66112 15.18,5.94 C15.18,6.304485 15.475515,6.6 15.84,6.6 L17.16,6.6 L17.16,8.30676 L15.37338,10.09338 C15.24963,10.21713 15.18,10.384935 15.18,10.56 L15.18,13.86 L13.86,13.86 L13.86,8.58 C13.85901,8.4982425 13.842675,8.417475 13.81182,8.34174 C13.799775,8.3160825 13.78608,8.2911675 13.7709,8.26716 C13.75506,8.2325925 13.7364975,8.1992625 13.71546,8.1675 L11.22,5.049 L11.22,0.66 C11.22,0.295515 10.924485,0 10.56,0 L6.6,0 C6.235515,0 5.94,0.295515 5.94,0.66 L5.94,5.049 L3.44454,8.1675 C3.4235025,8.1992625 3.40494,8.2325925 3.3891,8.26716 C3.37392,8.2911675 3.360225,8.3160825 3.34818,8.34174 C3.317325,8.417475 3.30099,8.4982425 3.3,8.58 L3.3,13.86 L0.66,13.86 C0.295515,13.86 -2.98960856e-13,14.155515 -2.98960856e-13,14.52 L-2.98960856e-13,17.16 C-2.98960856e-13,17.524485 0.295515,17.82 0.66,17.82 L2.05986,17.82 L4.62528,37.70448 C4.6677675,38.033655 4.9481025,38.2800825 5.28,38.28 L20.8164,38.28 C21.5649225,39.119025 22.6356075,39.599175 23.76,39.6 L24.79356,39.6 C25.518405,39.59934 26.233185,39.4306275 26.8818,39.10698 C27.8255175,38.637885 28.9344825,38.637885 29.8782,39.10698 C30.526815,39.4306275 31.241595,39.59934 31.96644,39.6 L33,39.6 C35.1861675,39.597855 36.957855,37.8261675 36.96,35.64 L36.96,31.68 C36.957855,29.4938325 35.1861675,27.722145 33,27.72 Z M25.74,1.32 L27.06,1.32 L27.06,2.64 L25.74,2.64 L25.74,1.32 Z M27.72,15.18 L27.72,16.5 L18.48,16.5 L18.48,15.18 L27.72,15.18 Z M16.54686,5.28 C16.8779325,3.0083625 18.824355,1.3228875 21.12,1.32 L24.42,1.32 L24.42,2.9832 L21.54834,5.28 L16.54686,5.28 Z M21.12,6.6 L21.12,7.92 L18.48,7.92 L18.48,6.6 L21.12,6.6 Z M16.5,10.83324 L18.09324,9.24 L21.50676,9.24 L24.42,12.15324 L24.42,13.86 L16.5,13.86 L16.5,10.83324 Z M15.84,15.18 L17.16,15.18 L17.16,19.8 C17.1585975,20.0513775 17.3001675,20.281635 17.52498,20.394 L21.48498,22.374 C21.6781125,22.469205 21.8244675,22.6384125 21.89088,22.84326 C21.9592725,23.0631225 21.9355125,23.3013 21.82488,23.50326 C21.634965,23.8843275 21.17214,24.0392625 20.7910725,23.849265 C20.790495,23.8490175 20.7899175,23.8486875 20.78934,23.84844 L18.10974,22.50864 C17.782215,22.34859 17.38704,22.484385 17.22699,22.81191 C17.1831825,22.90167 17.1602475,23.000175 17.16,23.1 L17.16,29.7 C17.16,30.4290525 16.5690525,31.02 15.84,31.02 L15.84,25.08 L14.52,25.08 L14.52,31.02 L13.2,31.02 L13.2,25.08 L11.88,25.08 L11.88,31.02 L10.56,31.02 L10.56,25.08 L9.24,25.08 L9.24,31.02 C8.5109475,31.02 7.92,30.4290525 7.92,29.7 L7.92,15.18 L15.84,15.18 Z M7.26,1.32 L9.9,1.32 L9.9,4.62 L7.26,4.62 L7.26,1.32 Z M6.9168,5.94 L10.2432,5.94 L11.8272,7.92 L5.3328,7.92 L6.9168,5.94 Z M4.62,9.24 L12.54,9.24 L12.54,13.86 L4.62,13.86 L4.62,9.24 Z M1.32,16.5 L1.32,15.18 L6.6,15.18 L6.6,16.5 L1.32,16.5 Z M19.8,31.68 L19.8,35.64 C19.801155,36.089955 19.8792825,36.5363625 20.031,36.96 L5.86014,36.96 L3.39042,17.82 L6.6,17.82 L6.6,29.7 C6.6,31.1580225 7.7819775,32.34 9.24,32.34 L15.84,32.34 C17.2980225,32.34 18.48,31.1580225 18.48,29.7 L18.48,24.16788 L20.20392,25.02984 C21.2456475,25.54398 22.5069075,25.1163 23.0210475,24.0745725 C23.0231925,24.0702825 23.025255,24.06591 23.0274,24.06162 C23.2830675,23.5548225 23.326545,22.96701 23.14818,22.42812 C22.97229,21.8889825 22.587015,21.4433175 22.07898,21.19128 L18.48,19.39212 L18.48,17.82 L25.64958,17.82 L24.37182,27.72 L23.76,27.72 C21.5738325,27.722145 19.802145,29.4938325 19.8,31.68 Z M35.64,35.64 C35.64,37.0980225 34.4580225,38.28 33,38.28 L31.96644,38.28 C31.4466075,38.2792575 30.934035,38.15823 30.4689,37.92624 C29.153025,37.2724275 27.606975,37.2724275 26.2911,37.92624 C25.825965,38.15823 25.3133925,38.2792575 24.79356,38.28 L23.76,38.28 C22.3019775,38.28 21.12,37.0980225 21.12,35.64 L21.12,34.6236 C21.8437725,35.2775775 22.78452,35.6397525 23.76,35.64 L24.79356,35.64 C25.518405,35.63934 26.233185,35.4706275 26.8818,35.14698 C27.8255175,34.677885 28.9344825,34.677885 29.8782,35.14698 C30.526815,35.4706275 31.241595,35.63934 31.96644,35.64 L33,35.64 C33.97548,35.6397525 34.9162275,35.2775775 35.64,34.6236 L35.64,35.64 Z M33,34.32 L31.96644,34.32 C31.4466075,34.3192575 30.934035,34.19823 30.4689,33.96624 C29.153025,33.3124275 27.606975,33.3124275 26.2911,33.96624 C25.825965,34.19823 25.3133925,34.3192575 24.79356,34.32 L23.76,34.32 C22.3019775,34.32 21.12,33.1380225 21.12,31.68 C21.12,30.2219775 22.3019775,29.04 23.76,29.04 L24.79356,29.04 C25.3133925,29.0407425 25.825965,29.16177 26.2911,29.39376 C27.6070575,30.04716 29.1529425,30.04716 30.4689,29.39376 C30.934035,29.16177 31.4466075,29.0407425 31.96644,29.04 L33,29.04 C34.4580225,29.04 35.64,30.2219775 35.64,31.68 C35.64,33.1380225 34.4580225,34.32 33,34.32 Z" id="Shape"></path>
                    </g>
                </g>
            </g>
        </g>
    </g>
</svg>